<?xml version="1.0" standalone="no"?>
<!DOCTYPE svg PUBLIC "-//W3C//DTD SVG 20010904//EN"
 "http://www.w3.org/TR/2001/REC-SVG-20010904/DTD/svg10.dtd">
<svg version="1.0" xmlns="http://www.w3.org/2000/svg"
 width="626.000000pt" height="626.000000pt" viewBox="0 0 626.000000 626.000000"
 preserveAspectRatio="xMidYMid meet">
<metadata>
Created by potrace 1.11, written by Peter Selinger 2001-2013
</metadata>
<g transform="translate(0.000000,626.000000) scale(0.100000,-0.100000)"
fill="#000000" stroke="none">
<path d="M5513 6098 c-32 -40 -62 -78 -68 -84 -5 -6 -23 -29 -40 -50 -53 -68
-275 -344 -414 -514 -286 -350 -546 -665 -551 -670 -3 -3 -46 -54 -95 -115
-49 -60 -94 -115 -100 -121 -11 -11 -15 -17 -212 -254 -70 -85 -136 -164 -145
-175 -9 -11 -97 -117 -194 -235 -235 -286 -200 -243 -566 -690 -178 -217 -369
-451 -426 -520 -57 -69 -206 -249 -330 -400 -125 -151 -244 -293 -266 -315
l-38 -40 29 40 c25 34 345 492 395 565 14 20 380 546 418 600 6 8 89 130 186
270 97 140 179 257 183 260 7 5 41 53 266 380 81 118 171 249 200 290 85 124
85 129 -1 25 -27 -33 -56 -67 -64 -75 -8 -8 -30 -33 -49 -55 -91 -108 -280
-291 -365 -354 -87 -64 -143 -81 -274 -82 -57 0 -111 8 -175 25 -119 32 -155
37 -252 37 -371 -2 -822 -238 -1040 -546 -83 -117 -177 -323 -199 -435 -2 -14
-9 -45 -14 -70 -52 -226 -45 -532 18 -826 44 -207 42 -363 -6 -582 -82 -369
-306 -827 -620 -1268 -102 -144 -90 -131 111 116 82 102 152 187 155 190 3 3
17 21 31 40 15 19 35 45 45 56 11 12 89 108 174 214 312 387 513 636 534 660
11 14 46 57 76 95 30 39 57 72 60 75 3 3 50 61 105 130 55 68 107 134 117 145
103 127 310 382 373 460 44 55 82 102 85 105 3 3 28 33 54 67 27 35 51 63 54
63 2 0 -7 -15 -20 -32 -100 -131 -375 -534 -547 -803 -224 -348 -565 -847
-658 -962 -19 -24 -32 -43 -29 -43 2 0 49 55 102 123 118 148 272 303 339 341
75 42 158 56 220 38 132 -39 271 -72 328 -79 107 -14 335 -8 432 11 581 111
1027 585 1103 1171 19 146 3 389 -33 505 -51 164 -82 371 -82 550 0 160 9 242
43 370 54 205 117 319 370 670 178 247 1228 1651 1296 1733 22 26 37 47 34 47
-3 0 -31 -33 -63 -72z"/>
<path d="M1399 663 c-13 -16 -12 -17 4 -4 16 13 21 21 13 21 -2 0 -10 -8 -17
-17z"/>
</g>
</svg>
